<svg width="64" height="64" viewBox="0 0 64 64" fill="none" xmlns="http://www.w3.org/2000/svg">
  <defs>
    <linearGradient id="favBg" x1="10" y1="8" x2="54" y2="56" gradientUnits="userSpaceOnUse">
      <stop stop-color="#0F6D88" />
      <stop offset="1" stop-color="#69D5D2" />
    </linearGradient>
  </defs>
  <rect x="4" y="4" width="56" height="56" rx="18" fill="url(#favBg)"/>
  <circle cx="32" cy="32" r="17" stroke="white" stroke-opacity="0.28" stroke-width="2"/>
  <path d="M32 12L35.5 20.5L32 24L28.5 20.5L32 12Z" fill="white"/>
  <path d="M52 32L43.5 35.5L40 32L43.5 28.5L52 32Z" fill="white" fill-opacity="0.9"/>
  <path d="M32 52L28.5 43.5L32 40L35.5 43.5L32 52Z" fill="white" fill-opacity="0.82"/>
  <path d="M12 32L20.5 28.5L24 32L20.5 35.5L12 32Z" fill="white" fill-opacity="0.9"/>
  <path d="M24.5 20.5C22 20.5 20.2 22.2 20.2 24.4C20.2 26.5 21.9 28 24 28H33.1C34.8 28 36.1 29.1 36.1 30.6C36.1 32.1 34.8 33.2 33.1 33.2H29.1C26.6 33.2 24.8 34.8 24.8 37C24.8 39.2 26.6 40.8 29.1 40.8H37.1C38.6 40.8 39.8 41.9 39.8 43.3C39.8 44.8 38.6 45.8 37.1 45.8H27.6" stroke="white" stroke-width="4.2" stroke-linecap="round" stroke-linejoin="round"/>
  <path d="M26.6 23.7H33.2M25.1 37H38M29.6 45.8C29.6 47.6 31 49 32.9 49" stroke="#0F8EA7" stroke-width="2.2" stroke-linecap="round"/>
</svg>
