<svg width="512" height="512" viewBox="0 0 512 512" fill="none" xmlns="http://www.w3.org/2000/svg">
  <defs>
    <linearGradient id="bgGradient" x1="96" y1="80" x2="424" y2="432" gradientUnits="userSpaceOnUse">
      <stop stop-color="#0F6D88" />
      <stop offset="1" stop-color="#69D5D2" />
    </linearGradient>
    <linearGradient id="coreGradient" x1="173" y1="150" x2="341" y2="358" gradientUnits="userSpaceOnUse">
      <stop stop-color="white" stop-opacity="0.98" />
      <stop offset="1" stop-color="#E8FCFF" stop-opacity="0.92" />
    </linearGradient>
    <filter id="shadow" x="32" y="32" width="448" height="448" filterUnits="userSpaceOnUse" color-interpolation-filters="sRGB">
      <feFlood flood-opacity="0" result="BackgroundImageFix"/>
      <feColorMatrix in="SourceAlpha" type="matrix" values="0 0 0 0 0 0 0 0 0 0 0 0 0 0 0 0 0 0 127 0" result="hardAlpha"/>
      <feOffset dy="20"/>
      <feGaussianBlur stdDeviation="24"/>
      <feColorMatrix type="matrix" values="0 0 0 0 0.0588235 0 0 0 0 0.427451 0 0 0 0 0.533333 0 0 0 0.22 0"/>
      <feBlend mode="normal" in2="BackgroundImageFix" result="effect1_dropShadow_0_1"/>
      <feBlend mode="normal" in="SourceGraphic" in2="effect1_dropShadow_0_1" result="shape"/>
    </filter>
  </defs>

  <g filter="url(#shadow)">
    <circle cx="256" cy="236" r="176" fill="url(#bgGradient)"/>
    <circle cx="256" cy="236" r="150" stroke="white" stroke-opacity="0.22" stroke-width="2"/>
    <circle cx="256" cy="236" r="110" stroke="white" stroke-opacity="0.24" stroke-width="18"/>

    <path d="M256 70L281 138L256 162L231 138L256 70Z" fill="white"/>
    <path d="M422 236L354 261L330 236L354 211L422 236Z" fill="white" fill-opacity="0.92"/>
    <path d="M256 402L231 334L256 310L281 334L256 402Z" fill="white" fill-opacity="0.85"/>
    <path d="M90 236L158 211L182 236L158 261L90 236Z" fill="white" fill-opacity="0.92"/>

    <path d="M192 152C171 152 154 169 154 190C154 212 171 227 189 227H274C289 227 300 237 300 251C300 265 289 275 274 275H236C215 275 198 291 198 312C198 333 215 350 236 350H318C332 350 343 361 343 375C343 389 332 399 318 399H243" stroke="url(#coreGradient)" stroke-width="36" stroke-linecap="round" stroke-linejoin="round"/>

    <path d="M195 166H281M188 314H319M243 399H278" stroke="#0F8EA7" stroke-width="15" stroke-linecap="round" stroke-opacity="0.95"/>
    <path d="M211 399C211 421 228 439 250 439" stroke="#EFFFFF" stroke-width="24" stroke-linecap="round"/>

    <path d="M256 126V147" stroke="#0F8EA7" stroke-width="10" stroke-linecap="round" stroke-opacity="0.55"/>
    <path d="M366 236H345" stroke="#0F8EA7" stroke-width="10" stroke-linecap="round" stroke-opacity="0.55"/>
    <path d="M256 346V325" stroke="#0F8EA7" stroke-width="10" stroke-linecap="round" stroke-opacity="0.45"/>
    <path d="M166 236H145" stroke="#0F8EA7" stroke-width="10" stroke-linecap="round" stroke-opacity="0.55"/>
  </g>
</svg>
